<svg xmlns="http://www.w3.org/2000/svg" xmlns:xlink="http://www.w3.org/1999/xlink" viewBox="0 0 96 96"><defs><style>.cls-1{fill:none;}.cls-2{opacity:0;}.cls-3{clip-path:url(#clip-path);}.cls-4{fill:#fff;}.cls-5{fill:#ffd400;}.cls-5,.cls-7,.cls-8,.cls-9{fill-rule:evenodd;}.cls-6{fill:#ffc20e;}.cls-7{fill:#007bc3;}.cls-8{fill:#004169;}.cls-9{fill:#d39e00;}</style><clipPath id="clip-path"><rect class="cls-1" width="96" height="96"/></clipPath></defs><g id="icones"><g class="cls-2"><g class="cls-3"><g class="cls-3"><g class="cls-2"><g class="cls-3"><g class="cls-3"><rect class="cls-4" width="96" height="96"/></g></g></g></g></g></g><path class="cls-5" d="M79.7,39.7a31.7,31.7,0,1,0-63.4,0h0c0,19.15,21.1,40.19,28.87,47.3A4.06,4.06,0,0,0,48,88.08H48a4.12,4.12,0,0,0,2.73-1.15c7.49-7.21,27.8-28.23,29-45.69,0-.52,0-1,0-1.53ZM55.34,65.59a27,27,0,0,1-7.34,1,27.5,27.5,0,1,1,27.5-27.5,27.08,27.08,0,0,1-1,7.36A27.48,27.48,0,0,1,55.34,65.59Z"/><path class="cls-6" d="M79.75,41.19c-1.11,17.47-21.4,38.52-28.9,45.74A4.08,4.08,0,0,1,48,88.08H48A4,4,0,0,1,45.27,87c-1.5-1.37-3.51-3.27-5.76-5.58L55.34,65.59A27.48,27.48,0,0,0,74.49,46.45Z"/><path class="cls-7" d="M45.37,23.32H60a3.5,3.5,0,0,1,2.76,1.35l6.6,8.45a1.17,1.17,0,0,1,.25.72,1.14,1.14,0,0,1-.25.71L62.75,43A3.48,3.48,0,0,1,60,44.35H45.37l8.22-10.51Z"/><path class="cls-8" d="M53.59,33.84l6-7.69A1.7,1.7,0,0,0,60,25.07a1.75,1.75,0,0,0-1.75-1.75H45.37Z"/><path class="cls-5" d="M50.63,54.87H36a3.52,3.52,0,0,1-2.77-1.35l-6.6-8.45a1.17,1.17,0,0,1-.25-.72,1.14,1.14,0,0,1,.25-.71l6.6-8.46A3.49,3.49,0,0,1,36,33.84H50.63L42.41,44.35Z"/><path class="cls-9" d="M42.41,44.35l-6,7.69A1.7,1.7,0,0,0,36,53.12a1.75,1.75,0,0,0,1.75,1.75H50.63Z"/></g></svg>